<svg xmlns="http://www.w3.org/2000/svg" width="224.084" height="193.658" viewBox="0 0 224.084 193.658">
  <g id="Group_3" data-name="Group 3" transform="translate(-1040.074 -503.717)">
    <g id="Group_2" data-name="Group 2" transform="translate(1040.074 503.717)">
      <g id="Group_1" data-name="Group 1" transform="translate(0)">
        <g id="undraw_new_notifications_fhvw">
          <path id="Path_1" data-name="Path 1" d="M262.889,701.631c3.771,7.55-.519,22.981-.519,22.981s-16.111-8.238-19.883-15.789-2.261-15.282,3.372-17.268S259.118,694.08,262.889,701.631Z" transform="translate(-240.411 -531.146)" fill="#e6e6e6"/>
          <ellipse id="Ellipse_1" data-name="Ellipse 1" cx="5.174" cy="4.347" rx="5.174" ry="4.347" transform="translate(115.586 61.828)" fill="#6c63ff"/>
          <ellipse id="Ellipse_2" data-name="Ellipse 2" cx="5.174" cy="4.347" rx="5.174" ry="4.347" transform="translate(115.586 33.033)" fill="#6c63ff"/>
          <ellipse id="Ellipse_3" data-name="Ellipse 3" cx="5.174" cy="4.347" rx="5.174" ry="4.347" transform="translate(115.586 4.237)" fill="#6c63ff"/>
          <path id="Path_2" data-name="Path 2" d="M685.017,80.112a1.452,1.452,0,0,0-1.558,1.309v14.55a1.452,1.452,0,0,0,1.558,1.309h82.922a1.452,1.452,0,0,0,1.558-1.309V81.421a1.452,1.452,0,0,0-1.558-1.309Z" transform="translate(-545.413 -80.112)" fill="#e6e6e6"/>
          <path id="Path_3" data-name="Path 3" d="M688.26,84.011a.842.842,0,0,0-.9.759V98.379a.842.842,0,0,0,.9.759h81.8a.841.841,0,0,0,.9-.759V84.77a.841.841,0,0,0-.9-.759Z" transform="translate(-548.096 -82.99)" fill="#fff"/>
          <path id="Path_4" data-name="Path 4" d="M780.2,120.587a1.252,1.252,0,1,0,0-2.466h-69.19a1.252,1.252,0,1,0,0,2.466Z" transform="translate(-563.367 -108.171)" fill="#e6e6e6"/>
          <path id="Path_5" data-name="Path 5" d="M740.779,100.123a1.252,1.252,0,1,0,0-2.466H711.006a1.252,1.252,0,1,0,0,2.466Z" transform="translate(-563.367 -93.064)" fill="#6c63ff"/>
          <path id="Path_6" data-name="Path 6" d="M685.017,190.112a1.452,1.452,0,0,0-1.558,1.309v14.55a1.452,1.452,0,0,0,1.558,1.309h82.922a1.451,1.451,0,0,0,1.558-1.309v-14.55a1.452,1.452,0,0,0-1.558-1.309Z" transform="translate(-545.413 -161.316)" fill="#e6e6e6"/>
          <path id="Path_7" data-name="Path 7" d="M688.26,194.011a.842.842,0,0,0-.9.759v13.609a.842.842,0,0,0,.9.759h81.8a.841.841,0,0,0,.9-.759V194.77a.841.841,0,0,0-.9-.759Z" transform="translate(-548.096 -164.195)" fill="#fff"/>
          <path id="Path_8" data-name="Path 8" d="M780.2,230.586a1.252,1.252,0,1,0,0-2.466h-69.19a1.252,1.252,0,1,0,0,2.466Z" transform="translate(-563.367 -189.375)" fill="#e6e6e6"/>
          <path id="Path_9" data-name="Path 9" d="M740.779,210.122a1.252,1.252,0,1,0,0-2.466H711.006a1.252,1.252,0,1,0,0,2.466Z" transform="translate(-563.367 -174.268)" fill="#6c63ff"/>
          <path id="Path_10" data-name="Path 10" d="M685.017,300.112a1.452,1.452,0,0,0-1.558,1.309v14.55a1.452,1.452,0,0,0,1.558,1.309h82.922a1.452,1.452,0,0,0,1.558-1.309v-14.55a1.452,1.452,0,0,0-1.558-1.309Z" transform="translate(-545.413 -242.521)" fill="#e6e6e6"/>
          <path id="Path_11" data-name="Path 11" d="M688.26,304.011a.842.842,0,0,0-.9.759v13.609a.842.842,0,0,0,.9.759h81.8a.841.841,0,0,0,.9-.759V304.77a.841.841,0,0,0-.9-.759Z" transform="translate(-548.096 -245.399)" fill="#fff"/>
          <path id="Path_12" data-name="Path 12" d="M780.2,340.586a1.252,1.252,0,1,0,0-2.466h-69.19a1.252,1.252,0,1,0,0,2.466Z" transform="translate(-563.367 -270.579)" fill="#e6e6e6"/>
          <path id="Path_13" data-name="Path 13" d="M740.779,320.122a1.252,1.252,0,1,0,0-2.466H711.006a1.252,1.252,0,1,0,0,2.466Z" transform="translate(-563.367 -255.472)" fill="#6c63ff"/>
          <path id="Path_14" data-name="Path 14" d="M384.655,503.186h0a4.449,4.449,0,0,1-2.988-1.646,3.146,3.146,0,0,1-.5-2.973l3.281-9.372,4.985.785.214,9.544a3.41,3.41,0,0,1-1.482,2.809A4.916,4.916,0,0,1,384.655,503.186Z" transform="translate(-337.191 -382.106)" fill="#9f616a"/>
          <path id="Path_15" data-name="Path 15" d="M188.915,492.5l-6.232-.785,1.558-51.047-8.724,21.99-4.674,30.89-5.92-1.309-1.246-32.2,6.855-37.958,34.274,6.544Z" transform="translate(-112.678 -311.591)" fill="#2f2e41"/>
          <path id="Path_16" data-name="Path 16" d="M465.787,779.854h0a5.012,5.012,0,0,1-3.394-1.264,3.478,3.478,0,0,1-1.165-2.961l.968-8.265a1.227,1.227,0,0,1,.751-.948,5.992,5.992,0,0,1,5.659.456,1.2,1.2,0,0,1,.624.859l1.1,7.821a3.462,3.462,0,0,1-1.124,3.009A5,5,0,0,1,465.787,779.854Z" transform="translate(-392.41 -586.378)" fill="#2f2e41"/>
          <path id="Path_17" data-name="Path 17" d="M388.293,776.346h0a3.822,3.822,0,0,1-2.5-2.185,3.005,3.005,0,0,1,.5-3l6.647-8.3c2.4-1.445,3.841-.741,4.4,1.959l1.344-2.829,1.013.928a2.387,2.387,0,0,1,.171,3.488l-6.9,8.816a4.624,4.624,0,0,1-4.68,1.13Z" transform="translate(-340.353 -583.485)" fill="#2f2e41"/>
          <ellipse id="Ellipse_4" data-name="Ellipse 4" cx="9.347" cy="7.853" rx="9.347" ry="7.853" transform="translate(80.599 45.571)" fill="#9f616a"/>
          <path id="Path_18" data-name="Path 18" d="M512.98,306.713,497.089,304.1c2.047-3.668,3.686-4.909,1.869-8.9h12.775C510.607,299.33,511.7,303.21,512.98,306.713Z" transform="translate(-417.113 -238.891)" fill="#9f616a"/>
          <path id="Path_19" data-name="Path 19" d="M459.479,375.834l-37.39-8.9c7.489-13.849,9.058-29.053,6.837-45.125a2.6,2.6,0,0,1,.763-2.183,3.7,3.7,0,0,1,2.4-1.054c4.877-.337,9.962-.771,15.238-1.376l5.92,3.4,6.855-1.309c2.2.9,4.415,1.641,6.415,2.383,3.777,1.406,5.664,4.993,4.36,8.287C464.784,345.417,460.706,360.729,459.479,375.834Z" transform="translate(-365.481 -255.132)" fill="#e6e6e6"/>
          <path id="Path_20" data-name="Path 20" d="M395.255,368.114l-7.166-.785,16.977-41.1c.864-2.091,3.005-3.222,5.613-3.535l2.493.262L411.3,347.3Z" transform="translate(-342.075 -259.192)" fill="#e6e6e6"/>
          <path id="Path_21" data-name="Path 21" d="M563.6,370.961h0a5.859,5.859,0,0,1-5.681-2.927l-6.834-13.823,5.608-17.016,1.483.793q.214.115.423.235c4.27,2.46,6.348,6.85,5.477,11.138l-1.463,7.206,6.034,10.884A5.528,5.528,0,0,1,563.6,370.961Z" transform="translate(-454.287 -269.896)" fill="#e6e6e6"/>
          <path id="Path_22" data-name="Path 22" d="M508.314,239.705h0a11.358,11.358,0,0,1,4.535,1.122c.318.155.171.716.465.9.37.23,1.173.09,1.5.36a7.654,7.654,0,0,1,2.958,6.734l-.522,4.357-1.23-1.131a13.867,13.867,0,0,0-8.554-3.528q-.209-.012-.419-.019l.947-1.392-1.645,1.382a19.016,19.016,0,0,0-2.242.153l1.259-1.851-2.415,2.029h0a6.333,6.333,0,0,0-4.513,3.092l-.268.5-.3-4.157a7.757,7.757,0,0,1,3.01-6.183,11.1,11.1,0,0,1,7.434-2.368Z" transform="translate(-417.649 -197.92)" fill="#2f2e41"/>
          <ellipse id="Ellipse_5" data-name="Ellipse 5" cx="0.751" cy="1.498" rx="0.751" ry="1.498" transform="translate(98.605 53.445)" fill="#9f616a"/>
          <ellipse id="Ellipse_6" data-name="Ellipse 6" cx="0.751" cy="1.498" rx="0.751" ry="1.498" transform="translate(79.835 52.972)" fill="#9f616a"/>
          <path id="Path_23" data-name="Path 23" d="M602.8,364.349h0a4.286,4.286,0,0,1,2.811,1.853,3.117,3.117,0,0,1,.194,3l-4.216,9.1-4.888-1.138.751-9.525a3.534,3.534,0,0,1,1.761-2.693,5,5,0,0,1,3.587-.6Z" transform="translate(-485.691 -289.865)" fill="#9f616a"/>
          <path id="Path_24" data-name="Path 24" d="M340.467,340.528l-7.79-4.188,6.543-11.256,8.1,2.618-4.051,9.948Z" transform="translate(-229.02 -239.983)" fill="#e6e6e6"/>
          <path id="Path_25" data-name="Path 25" d="M139.928,738.221H45.288v-.551h94.759Z" transform="translate(-31.177 -544.564)" fill="#3f3d56"/>
        </g>
      </g>
    </g>
  </g>
</svg>
